<svg xmlns="http://www.w3.org/2000/svg" xmlns:xlink="http://www.w3.org/1999/xlink" xmlns:serif="http://www.serif.com/" viewBox="0 0 32 40" version="1.1" xml:space="preserve" style="" x="0px" y="0px" fill-rule="evenodd" clip-rule="evenodd" stroke-linejoin="round" stroke-miterlimit="2"><g transform="matrix(1,0,0,1,-144,0)"><path d="M159,3L159,29C159,29.552 159.448,30 160,30C160.552,30 161,29.552 161,29L161,3C161,2.448 160.552,2 160,2C159.448,2 159,2.448 159,3ZM157,5L149,5C148.204,5 147.441,5.316 146.879,5.879C146.316,6.441 146,7.204 146,8C146,11.832 146,20.168 146,24C146,24.796 146.316,25.559 146.879,26.121C147.441,26.684 148.204,27 149,27L157,27L157,5ZM163,5L163,27L171,27C171.796,27 172.559,26.684 173.121,26.121C173.684,25.559 174,24.796 174,24L174,8C174,7.204 173.684,6.441 173.121,5.879C172.559,5.316 171.796,5 171,5L163,5Z"/></g></svg>